<svg width="112" height="112" viewBox="0 0 112 112" fill="none" xmlns="http://www.w3.org/2000/svg">
<path d="M38.7007 31.5139H73.7948L62.0968 47.4183H50.3987L38.7007 31.5139Z" fill="#FFFFFF" stroke="#FFFFFF" stroke-width="2.17912" stroke-linejoin="round"/>
<path d="M70.9402 42.5446C73.9397 45.3834 75.9999 49.0267 76.8576 53.0088C77.7154 56.991 77.3317 61.1312 75.7557 64.9005C74.1797 68.6697 71.4829 71.8968 68.0098 74.1695C64.5368 76.4421 60.4452 77.657 56.258 77.659C52.0708 77.661 47.978 76.45 44.5027 74.1807C41.0273 71.9114 38.3272 68.6868 36.7474 64.9191C35.1676 61.1513 34.7798 57.0114 35.6335 53.0285C36.4872 49.0455 38.5438 45.4003 41.5403 42.5586" stroke="#FFFFFF" stroke-width="5.06507" stroke-linecap="round" stroke-linejoin="round"/>
<path d="M56.2477 82.9397C59.5136 82.9397 62.1611 80.2449 62.1611 76.9206C62.1611 73.5964 59.5136 70.9016 56.2477 70.9016C52.9818 70.9016 50.3342 73.5964 50.3342 76.9206C50.3342 80.2449 52.9818 82.9397 56.2477 82.9397Z" fill="#FFFFFF" stroke="#FFFFFF" stroke-width="2.17912" stroke-linecap="round" stroke-linejoin="round"/>
</svg>
